<svg xmlns="http://www.w3.org/2000/svg" viewBox="0 0 512 512" width="512" height="512">
  <defs>
    <clipPath id="circleClip">
      <circle cx="256" cy="256" r="230"/>
    </clipPath>
  </defs>

  <!-- Outer ring -->
  <circle cx="256" cy="256" r="248" fill="none" stroke="#D4AF37" stroke-width="6"/>
  <circle cx="256" cy="256" r="238" fill="none" stroke="#D4AF37" stroke-width="2" opacity="0.4"/>

  <!-- Dark circle background -->
  <circle cx="256" cy="256" r="230" fill="#0A1628"/>

  <!-- Subtle inner ring -->
  <circle cx="256" cy="256" r="220" fill="none" stroke="#D4AF37" stroke-width="1" opacity="0.15"/>

  <!-- Aircraft group — rotated to ascend diagonally -->
  <g clip-path="url(#circleClip)">
    <g transform="translate(256,256) rotate(-35) translate(-256,-256)">

      <!-- Fuselage -->
      <path d="M 110,270 
               C 110,270 140,258 200,252 
               L 380,240 
               C 400,238 430,234 445,230 
               C 455,227 458,224 455,222 
               C 450,218 430,218 410,220 
               L 200,238 
               C 160,242 130,252 110,270 Z" 
            fill="#D4AF37"/>

      <!-- Fuselage highlight stripe -->
      <path d="M 170,256 L 420,232 L 420,228 L 170,252 Z" 
            fill="#0A1628" opacity="0.3"/>

      <!-- Window dots -->
      <circle cx="200" cy="249" r="2.5" fill="#0A1628" opacity="0.5"/>
      <circle cx="215" cy="247.5" r="2.5" fill="#0A1628" opacity="0.5"/>
      <circle cx="230" cy="246" r="2.5" fill="#0A1628" opacity="0.5"/>
      <circle cx="245" cy="244.5" r="2.5" fill="#0A1628" opacity="0.5"/>
      <circle cx="260" cy="243" r="2.5" fill="#0A1628" opacity="0.5"/>
      <circle cx="275" cy="241.5" r="2.5" fill="#0A1628" opacity="0.5"/>
      <circle cx="290" cy="240" r="2.5" fill="#0A1628" opacity="0.5"/>
      <circle cx="305" cy="238.5" r="2.5" fill="#0A1628" opacity="0.5"/>
      <circle cx="320" cy="237" r="2.5" fill="#0A1628" opacity="0.5"/>
      <circle cx="335" cy="235.5" r="2.5" fill="#0A1628" opacity="0.5"/>
      <circle cx="350" cy="234" r="2.5" fill="#0A1628" opacity="0.5"/>

      <!-- Left wing (main wing) -->
      <path d="M 210,255 
               L 160,330 
               C 155,340 158,342 165,338 
               L 280,260 
               Z" 
            fill="#D4AF37"/>

      <!-- Right wing -->
      <path d="M 280,240 
               L 340,170 
               C 345,162 342,158 336,162 
               L 230,232 
               Z" 
            fill="#D4AF37"/>

      <!-- Tail fin (vertical stabilizer) -->
      <path d="M 120,268 
               L 95,230 
               C 90,220 92,215 98,218 
               L 140,258 
               Z" 
            fill="#D4AF37"/>

      <!-- Horizontal stabilizer top -->
      <path d="M 125,262 
               L 88,240 
               C 82,237 80,240 85,245 
               L 125,268 
               Z" 
            fill="#D4AF37" opacity="0.85"/>

      <!-- Horizontal stabilizer bottom -->
      <path d="M 125,272 
               L 90,290 
               C 84,294 85,297 90,294 
               L 135,276 
               Z" 
            fill="#D4AF37" opacity="0.85"/>

      <!-- Left engine nacelle -->
      <path d="M 195,272 
               C 190,272 186,276 186,282 
               C 186,288 190,292 195,292 
               L 210,292 
               C 215,292 219,288 219,282 
               C 219,276 215,272 210,272 Z" 
            fill="#D4AF37"/>
      <ellipse cx="195" cy="282" rx="5" ry="8" fill="#0A1628" opacity="0.6"/>

      <!-- Right engine nacelle -->
      <path d="M 310,222 
               C 305,222 301,226 301,232 
               C 301,238 305,242 310,242 
               L 325,242 
               C 330,242 334,238 334,232 
               C 334,226 330,222 325,222 Z" 
            fill="#D4AF37"/>
      <ellipse cx="310" cy="232" rx="5" ry="8" fill="#0A1628" opacity="0.6"/>

    </g>

    <!-- Swoosh trail behind aircraft -->
    <path d="M 60,380 Q 180,320 300,280 Q 380,255 460,250" 
          fill="none" stroke="#D4AF37" stroke-width="2.5" opacity="0.25" stroke-linecap="round"/>
    <path d="M 40,400 Q 170,340 310,295 Q 400,268 480,258" 
          fill="none" stroke="#D4AF37" stroke-width="1.5" opacity="0.12" stroke-linecap="round"/>
  </g>

  <!-- "LEVANT" text arc at bottom -->
  <defs>
    <path id="textArc" d="M 100,350 A 200,200 0 0,0 412,350"/>
  </defs>
  <text fill="#D4AF37" font-family="'JetBrains Mono', 'SF Pro Display', Arial, sans-serif" font-size="28" font-weight="700" letter-spacing="18" text-anchor="middle">
    <textPath href="#textArc" startOffset="50%">LEVANT</textPath>
  </text>

  <!-- Small "VA" below -->
  <text x="256" y="430" fill="#D4AF37" opacity="0.5" font-family="'JetBrains Mono', 'SF Pro Display', Arial, sans-serif" font-size="14" font-weight="600" letter-spacing="8" text-anchor="middle">VIRTUAL AIRLINES</text>

  <!-- Star accent at top -->
  <polygon points="256,48 260,58 270,58 262,64 265,74 256,68 247,74 250,64 242,58 252,58" fill="#D4AF37" opacity="0.6"/>
</svg>
